# xmcd
#
# Track frame offsets:
#	150
#	20895
#	44143
#	77134
#	98374
#	117390
#	139518
#	163902
#	185574
#
# Disc length: 2820 seconds
#
# Revision: 0
# Processed by: cddbd v1.5.2PL0 Copyright (c) Steve Scherf et al.
# Submitted via: EZCDAudioConverter 2.1.3.1
#
DISCID=7a0b0209
DTITLE=Anh Tho - Loi ve
DYEAR=2012
DGENRE=Pop
TTITLE0=Da Nang tinh nguoi
TTITLE1=Thu Bon oi
TTITLE2=Hue xua
TTITLE3=Thuong ve co do
TTITLE4=Tren bien que huong
TTITLE5=Cau ho ben bo Hien Luong
TTITLE6=Cau doi cau cho
TTITLE7=Noi ay que minh
TTITLE8=Cung dan Thuy Kieu
EXTD=
EXTT0=
EXTT1=
EXTT2=
EXTT3=
EXTT4=
EXTT5=
EXTT6=
EXTT7=
EXTT8=
PLAYORDER=
